<svg width="328" height="336" viewBox="0 0 328 336" fill="none" xmlns="http://www.w3.org/2000/svg">
<g clip-path="url(#clip0_2_40)">
<path d="M138.117 278.328C117.452 298.932 92.2813 311.367 68.276 309.321C34.3107 306.419 16.804 271.257 19.072 229.096C22.2627 169.939 66.464 98.568 108.6 102.952C123.369 104.499 133.555 118.272 131.983 148.123C130.148 182.729 106.541 233.197 81.616 231.716C70.108 231.033 66.5147 218.585 67.392 207.575C69.2907 183.733 80.7427 177.192 81.508 167.525C81.9533 161.841 76.4427 159.359 72.4027 160.712C65.4653 163.053 51.648 181.221 49.964 207.064C47.9053 238.637 67.596 248.489 79.268 249.179C113.801 251.229 147.504 200.207 150.341 146.607C152.164 111.915 137.871 89.516 110.811 86.44C58.1947 80.4747 2.92132 153.38 0.0959874 229.745C-1.60135 275.405 19.2613 323.199 67.9173 326.835C91.1613 328.413 115.485 318.733 136.765 301.367C136.757 302.141 136.753 302.899 136.757 303.604" fill="#E51636"/>
<path d="M64.648 23.9013C55.8987 28.152 52.7907 40.8067 59.232 55.692C65.6613 70.58 78.8027 81.1213 87.5467 76.896C96.3027 72.6413 97.3533 55.1947 90.9173 40.3027C84.48 25.432 73.396 19.6653 64.648 23.9013ZM131.289 5.43199C119.663 2.73866 107.753 12.76 103.727 32.4387C99.6787 52.108 105.313 72.788 116.944 75.4547C128.563 78.1333 141.807 61.808 145.833 42.1333C149.873 22.46 142.92 8.09333 131.289 5.43199ZM121.651 135.412C121.432 145.683 109.607 158.216 103.96 148.563C100.881 141.173 108.62 127.727 115.784 127.499C121.56 127.499 121.697 132.96 121.651 135.412Z" fill="#E51636"/>
<path d="M188.823 155.928C188.823 148.745 170.224 135.143 157.088 133.867C157.243 137.745 157.213 141.733 156.996 145.879C156.481 155.673 155.075 165.559 152.9 175.263C177.037 157.573 188.823 162.433 188.823 155.928Z" fill="#E51636"/>
<path d="M215.259 37.4227C206.383 24.7813 187.171 24.0093 167.76 39.292C148.351 54.5787 137.281 79.1827 146.156 91.856C155.032 104.499 180.487 100.405 199.912 85.116C219.313 69.828 224.129 50.0947 215.259 37.4227Z" fill="#E51636"/>
<path d="M32.4333 63.8493C27.9467 69.4413 29.3387 78.5213 37.484 85.8827C45.6227 93.2667 56.9267 95.6587 61.4307 90.0747C65.932 84.488 61.9187 73.0253 53.7827 65.6613C45.6413 58.2813 36.956 58.2667 32.4333 63.8493Z" fill="#E51636"/>
</g>
<g clip-path="url(#clip1_2_40)">
<path d="M265.463 335.652L262.24 332.756C259.006 329.853 255.218 329.249 250.832 328.549C250.183 328.448 249.503 328.338 248.796 328.218C240.574 326.827 237.798 325.371 234.686 322.633C231.776 320.073 230.358 315.287 230.35 308.002L230.359 239.419H300.56L300.582 308.004C300.554 313.041 300.033 319.255 296.212 322.642C293.44 325.099 291.109 326.701 282.13 328.219C281.545 328.319 280.969 328.412 280.402 328.503L280.109 328.55C275.715 329.249 271.923 329.852 268.688 332.755L265.463 335.652Z" fill="#C6A566"/>
<path d="M262.56 332.398L265.463 335.004L268.367 332.397C271.707 329.398 275.564 328.785 280.031 328.075L280.3 328.031C280.891 327.937 281.465 327.845 282.05 327.744C290.902 326.247 293.186 324.682 295.895 322.28C299.615 318.984 300.077 312.553 300.101 308.003L300.08 239.901H230.84L230.831 308.002C230.839 315.14 232.204 319.808 235.004 322.272C237.661 324.609 240.061 326.253 248.876 327.744C249.582 327.864 250.26 327.973 250.903 328.074C255.368 328.786 259.221 329.399 262.56 332.398Z" fill="#17191D"/>
<path d="M263.625 331.204C259.935 327.892 255.67 327.212 251.154 326.492C250.513 326.392 249.842 326.283 249.144 326.164C234.071 323.615 232.439 318.721 232.427 307.999L232.436 241.502H298.482L298.503 308.005C298.482 312.071 298.181 318.115 294.836 321.081C292.228 323.392 290.03 324.77 281.784 326.165C281.193 326.266 280.616 326.359 280.049 326.45L279.779 326.493C275.258 327.212 270.993 327.89 267.302 331.204L265.464 332.854L263.625 331.204Z" fill="#C6A566"/>
<path d="M295.728 244.265H235.191L235.182 307.997C235.193 316.758 235.179 321.001 249.606 323.441C250.291 323.558 250.951 323.663 251.586 323.763C256.302 324.515 261.171 325.292 265.463 329.146C269.757 325.29 274.629 324.515 279.342 323.765C279.987 323.662 280.643 323.558 281.324 323.441C295.753 321 295.701 316.758 295.747 308.005L295.728 244.265Z" fill="#17191D"/>
<path d="M259.547 252.337C259.532 252.337 259.517 252.347 259.507 252.371L257.293 257.013H258.484L258.651 256.624H260.364L260.538 257.013H261.795L259.588 252.371C259.578 252.347 259.562 252.337 259.547 252.337ZM262.235 252.348C262.221 252.354 262.215 252.371 262.215 252.391V257.013H263.36V254.738L266.215 257.092C266.289 257.152 266.309 257.132 266.309 257.079V252.452H265.164V254.738L262.309 252.378C262.272 252.348 262.25 252.342 262.235 252.348ZM250.149 252.399C248.839 252.399 247.708 253.357 247.708 254.732C247.708 256.107 248.839 257.073 250.149 257.073C251.46 257.073 252.591 256.107 252.591 254.732C252.591 253.357 251.46 252.399 250.149 252.399ZM254.525 252.399C253.715 252.399 252.973 252.861 252.973 253.759C252.973 254.51 253.441 254.913 254.103 255.134L254.637 255.314C254.938 255.415 255.085 255.509 255.085 255.703C255.085 255.958 254.871 256.066 254.51 256.066C254.055 256.066 253.782 255.845 253.561 255.57L252.677 256.233C252.958 256.609 253.541 257.079 254.564 257.079C255.768 257.079 256.29 256.476 256.29 255.638C256.29 254.994 255.981 254.557 255.072 254.255L254.47 254.054C254.25 253.98 254.15 253.894 254.15 253.72C254.15 253.538 254.296 253.404 254.59 253.404C254.951 253.404 255.153 253.538 255.34 253.733L256.035 253.002C255.767 252.687 255.327 252.399 254.525 252.399ZM269.297 252.399C267.986 252.399 266.876 253.357 266.876 254.732C266.876 256.107 267.987 257.073 269.325 257.073C270.335 257.073 270.882 256.79 271.304 256.442V254.537H269.317V255.476H270.221V255.865C270.027 255.959 269.78 256.045 269.338 256.045C268.535 256.045 268.12 255.449 268.12 254.732C268.12 254.015 268.528 253.458 269.271 253.458C269.726 253.458 270.045 253.652 270.273 253.947L271.124 253.21C270.729 252.701 270.099 252.399 269.297 252.399ZM284.847 252.399C284.038 252.399 283.295 252.861 283.295 253.759C283.295 254.51 283.763 254.913 284.425 255.134L284.959 255.314C285.261 255.415 285.409 255.509 285.409 255.703C285.409 255.958 285.195 256.066 284.834 256.066C284.379 256.066 284.104 255.845 283.884 255.57L283.001 256.233C283.282 256.609 283.863 257.079 284.886 257.079C286.09 257.079 286.612 256.476 286.612 255.638C286.612 254.994 286.305 254.557 285.396 254.255L284.791 254.054C284.571 253.98 284.471 253.894 284.471 253.72C284.471 253.538 284.619 253.404 284.913 253.404C285.274 253.404 285.474 253.538 285.661 253.733L286.358 253.002C286.09 252.687 285.648 252.399 284.846 252.399L284.847 252.399ZM244.318 252.451V257.013H247.468V255.985H245.536V252.451H244.318ZM271.913 252.451V257.013H275.196V255.985H273.129V255.51H274.774V254.537H273.129V253.477H275.102V252.451L271.913 252.451ZM275.784 252.451V257.013H278.936V255.985H277.002V252.451H275.784ZM279.496 252.451V257.013H282.781V255.985H280.714V255.51H282.359V254.537H280.714V253.477H282.687V252.451L279.496 252.451ZM250.149 253.458C250.912 253.458 251.347 254.014 251.347 254.732C251.347 255.449 250.912 256.013 250.149 256.013C249.387 256.013 248.952 255.449 248.952 254.732C248.952 254.014 249.387 253.458 250.149 253.458ZM259.494 254.651L259.96 255.711H259.038L259.494 254.651ZM255.857 262.258V268.615C261.479 273.65 270.823 282.729 276.558 287.885V288.224L257.744 271.594V275.635H257.746C263.469 279.981 270.755 285.847 276.558 290.252V290.575L259.668 277.906V281.699C265.286 285.087 271.139 289.022 276.558 292.268V292.634L261.585 283.647V286.699C268.195 290.042 273.709 293.065 280.242 296.355V298.251V304.375H286.655V262.492C279.512 263.228 274.1 266.811 270.435 271.738C269.844 272.497 269.3 273.298 268.797 274.133L273.427 279.279C274.963 276.195 277.236 273.765 280.242 272.014V286.854V289.354L255.857 262.258ZM244.275 262.282V304.355H264.62C263.747 302.243 263.104 299.162 262.834 297.739H250.689V267.014L244.275 262.282ZM264.641 290.7C264.639 293.392 264.888 295.822 265.177 297.731C265.446 299.154 266.089 302.241 266.963 304.355H273.396C273.396 304.355 271.673 299.553 271.155 293.826C271.067 293.784 270.979 293.743 270.892 293.702C268.906 292.761 266.868 291.794 264.641 290.7ZM263.989 310.384C263.977 310.384 263.964 310.394 263.956 310.414L262.131 314.239H263.113L263.249 313.918H264.662L264.805 314.239H265.841L264.021 310.414C264.013 310.394 264.002 310.384 263.989 310.384ZM249.131 310.437C248.05 310.437 247.118 311.227 247.118 312.36C247.118 313.493 248.05 314.29 249.131 314.29C250.211 314.29 251.143 313.493 251.143 312.36C251.143 311.227 250.211 310.437 249.131 310.437ZM253.442 310.437C252.362 310.437 251.43 311.227 251.43 312.36C251.43 313.493 252.362 314.29 253.442 314.29C254.523 314.29 255.455 313.493 255.455 312.36C255.455 311.227 254.523 310.437 253.442 310.437ZM274.696 310.437C273.693 310.437 272.798 311.227 272.798 312.36C272.798 313.493 273.697 314.288 274.75 314.288C275.511 314.288 276.03 314.018 276.399 313.393L275.627 312.896C275.467 313.194 275.23 313.416 274.745 313.416C274.171 313.416 273.825 312.952 273.825 312.36C273.825 311.769 274.159 311.31 274.711 311.31C275.185 311.31 275.418 311.536 275.562 311.757L276.317 311.242C276.002 310.778 275.506 310.437 274.696 310.437ZM244.311 310.48V314.239H245.316V313.044H246.676V312.199H245.316V311.325H246.86V310.48L244.311 310.48ZM255.531 310.48V311.325H256.524V314.239H257.526V311.325H258.52V310.48H255.531ZM258.971 310.48V314.239H260.569C261.501 314.239 262.059 313.83 262.059 313.112C262.059 312.537 261.712 312.243 261.304 312.127C261.546 312.011 261.733 311.819 261.733 311.398C261.733 310.824 261.248 310.48 260.504 310.48L258.971 310.48ZM266.189 310.48V314.239H268.784V313.393H267.191V310.48L266.189 310.48ZM269.247 310.48V314.239H271.844V313.393H270.251V310.48L269.247 310.48ZM276.785 310.48V314.239H279.382V313.393H277.787V310.48L276.785 310.48ZM279.668 310.48V312.785C279.668 313.796 280.358 314.295 281.295 314.295C282.232 314.295 282.921 313.796 282.921 312.785V310.48H281.917V312.774C281.917 313.199 281.719 313.442 281.295 313.442C280.87 313.442 280.671 313.199 280.671 312.774V310.48H279.668ZM283.532 310.48V314.239H285.13C286.062 314.239 286.62 313.83 286.62 313.112C286.62 312.537 286.273 312.243 285.865 312.127C286.107 312.011 286.294 311.819 286.294 311.398C286.294 310.824 285.809 310.48 285.065 310.48L283.532 310.48ZM259.941 311.276H260.438C260.659 311.276 260.745 311.404 260.745 311.581C260.745 311.757 260.647 311.868 260.427 311.868H259.941V311.276ZM284.503 311.276H284.999C285.22 311.276 285.309 311.404 285.309 311.581C285.309 311.757 285.209 311.868 284.988 311.868H284.503V311.276ZM249.13 311.31C249.759 311.31 250.118 311.769 250.118 312.36C250.118 312.952 249.759 313.416 249.13 313.416C248.502 313.416 248.143 312.952 248.143 312.36C248.143 311.769 248.502 311.31 249.13 311.31ZM253.442 311.31C254.07 311.31 254.427 311.769 254.427 312.36C254.427 312.952 254.07 313.416 253.442 313.416C252.813 313.416 252.454 312.952 252.454 312.36C252.454 311.769 252.813 311.31 253.442 311.31ZM263.944 312.293L264.33 313.166H263.569L263.944 312.293ZM259.942 312.597H260.547C260.927 312.597 261.055 312.758 261.055 313.018C261.055 313.278 260.933 313.442 260.547 313.442H259.942V312.597ZM284.503 312.597H285.11C285.491 312.597 285.616 312.758 285.616 313.018C285.616 313.278 285.496 313.442 285.11 313.442H284.503V312.597Z" fill="#C6A566"/>
</g>
<g clip-path="url(#clip2_2_40)">
<mask id="mask0_2_40" style="mask-type:luminance" maskUnits="userSpaceOnUse" x="231" y="0" width="69" height="92">
<path d="M299 0H231V91.6615H299V0Z" fill="white"/>
</mask>
<g mask="url(#mask0_2_40)">
<path fill-rule="evenodd" clip-rule="evenodd" d="M268.629 91.6615H294.791C292.376 90.0228 290.24 87.1529 289.288 83.8673L281.975 58.8114C281.184 56.1129 282.47 53.416 284.525 51.5916C281.607 50.6937 279.018 48.6751 278.206 45.8815L274.107 31.8554C279.932 29.9085 283.725 26.4641 283.725 22.4606C283.725 17.2339 277.249 12.9533 268.231 11.7285L264.805 0H260.973L257.551 11.7308C248.529 12.9557 242.044 17.2339 242.044 22.4606C242.044 26.4644 245.847 29.9085 251.676 31.8554L247.581 45.8815C246.773 48.6755 244.176 50.694 241.257 51.5916C243.309 53.416 244.603 56.1129 243.812 58.8114L236.495 83.8673C235.526 87.1535 233.407 90.0228 231 91.6615H257.162C255.021 90.0228 253.854 87.1529 254.814 83.8673L255.457 81.6882H270.338L270.972 83.8673C271.929 87.1535 270.761 90.0228 268.629 91.6615ZM260.639 63.9386L262.897 56.1862L265.152 63.9386H260.639Z" fill="white"/>
<path fill-rule="evenodd" clip-rule="evenodd" d="M290.392 89.8854C289.14 88.2572 288.15 86.3608 287.566 84.3738L280.299 59.4826C279.152 55.5334 281.28 52.7252 281.559 52.2774C279.034 50.913 277.186 48.8326 276.483 46.3772L272.063 31.2277C278.298 29.57 282.549 26.2696 282.549 22.4599C282.549 17.6429 275.718 13.6221 266.67 12.733L263.476 1.78161H262.317L259.124 12.733C250.068 13.6197 243.232 17.6409 243.232 22.4599C243.232 26.2696 247.488 29.57 253.723 31.2277L249.302 46.3772C248.587 48.8333 246.747 50.9133 244.222 52.2774C244.506 52.7252 246.637 55.5334 245.479 59.4826L238.215 84.3738C237.636 86.3608 236.642 88.2572 235.39 89.8854H253.506C252.047 86.6626 252.813 84.3144 253.468 82.1037L254.111 79.9035H271.674L272.32 82.1037C272.963 84.3148 273.733 86.663 272.274 89.8854M258.239 65.7206L262.896 49.7985L267.537 65.7206H258.239Z" fill="#003263"/>
<path fill-rule="evenodd" clip-rule="evenodd" d="M267.706 26.3578H267.71L265.38 18.3606L265.836 19.9528C264.885 19.9002 263.899 19.8642 262.896 19.8642V25.0525L276.851 72.8158L280.057 83.7716L285.573 87.068C285.188 86.2318 284.841 85.3746 284.579 84.4961L277.633 60.7604C276.542 57.0499 277.143 55.4492 277.934 53.2106C275.848 51.612 274.461 49.532 273.784 47.1882L268.514 29.1093L268.501 29.1117M264.53 15.4424L262.897 9.85011V15.4061C263.447 15.4064 263.993 15.4214 264.53 15.4424ZM245.643 84.0615L250.102 87.0683C249.861 85.5712 250.089 83.6012 250.516 82.2029L251.997 77.0926L248.934 72.8161M254.484 68.5339L262.897 39.7718V25.0529L248.934 72.8161H276.852L271.286 68.5339" fill="#CD1141"/>
<path fill-rule="evenodd" clip-rule="evenodd" d="M262.897 39.7718L271.286 68.5339L276.852 72.8161L262.897 25.0529M285.574 87.0683L280.058 83.7719L276.851 72.8161H248.934L262.897 25.0529L262.897 19.8645C263.9 19.8645 264.885 19.9005 265.837 19.9531L265.38 18.361C265.257 18.3525 265.131 18.3484 265.004 18.344C264.318 18.308 263.617 18.287 262.897 18.287C262.047 18.287 261.218 18.3145 260.41 18.3606L258.076 26.3578L257.28 29.1114L257.272 29.109L251.997 47.1879C251.32 49.5316 249.946 51.6117 247.848 53.2103C248.634 55.4488 249.239 57.0498 248.152 60.7601L241.198 84.4957C240.936 85.3746 240.606 86.2315 240.2 87.0676H250.103L245.644 84.0608L248.935 72.8158L251.998 77.0923H273.786L275.287 82.2025C275.685 83.6008 275.914 85.5709 275.685 87.068M262.897 9.85079L261.264 15.4431C261.802 15.4221 262.347 15.4071 262.897 15.4071" fill="#8F0028"/>
<path fill-rule="evenodd" clip-rule="evenodd" d="M258.076 26.3578C253.021 25.7539 249.429 24.2313 249.429 22.4595C249.429 20.4196 254.158 18.7215 260.41 18.3606C261.218 18.3141 262.047 18.287 262.897 18.287C263.617 18.287 264.318 18.308 265.004 18.344C265.131 18.3481 265.258 18.3525 265.38 18.361C271.628 18.7222 276.361 20.4159 276.361 22.4599C276.361 24.2316 272.766 25.7539 267.711 26.3582H267.707L268.502 29.1117L268.515 29.1093C275.025 28.134 279.694 25.5342 279.694 22.4595C279.694 18.7999 273.037 15.7867 264.53 15.4421C263.993 15.421 263.447 15.4061 262.897 15.4061C262.347 15.4061 261.802 15.421 261.264 15.4421C252.741 15.7863 246.096 18.7999 246.096 22.4595C246.096 25.5339 250.757 28.1357 257.271 29.1093L257.28 29.1117" fill="#C4CDD3"/>
</g>
</g>
<g clip-path="url(#clip3_2_40)">
<path d="M278.538 130C245.005 130 218.315 148.558 218.315 148.558C218.315 148.558 251.226 145.864 251.226 152.749C251.226 158.795 225.158 168.613 225.158 168.613C225.158 168.613 245.716 169.182 245.716 174.18C245.716 182.651 203 194.056 203 194.056C203 194.056 217.96 201 241.332 201C283.219 201 327.624 176.994 327.624 158.316C327.624 141.105 302.651 130 278.538 130Z" fill="#A4A9AD"/>
<path d="M278.538 131.497C254.336 131.497 233.541 141.464 224.299 146.672C224.299 146.672 252.707 144.637 252.707 152.749C252.707 157.807 240.503 163.884 231.971 167.505C238.962 168.194 247.227 169.9 247.227 174.18C247.227 182.083 221.04 190.524 207.858 194.265C213.812 196.271 225.691 199.473 241.332 199.473C283.426 199.473 326.142 175.527 326.142 158.316C326.142 141.763 301.437 131.497 278.538 131.497Z" fill="#111111"/>
<path d="M233.512 193.936L228.565 195.253C232.345 195.619 236.142 195.789 239.94 195.762C289.854 195.762 322.973 165.081 322.973 160.202C322.971 159.867 322.921 159.534 322.825 159.214C305.14 180.466 270.007 195.133 233.512 193.936Z" fill="#F95602"/>
<path d="M279.16 135.657C260.498 135.657 240.206 142.961 240.206 142.961C240.206 142.961 261.09 141.913 261.09 150.743C261.09 158.975 246.338 165.021 246.338 165.021C246.338 165.021 255.284 167.116 255.284 172.355C255.284 184.238 226.254 191.631 226.254 191.631C287.188 194.624 321.995 161.699 321.995 155.622C321.995 149.935 305.051 135.657 279.16 135.657Z" fill="white"/>
<path d="M279.16 136.884C267.459 136.884 255.018 139.818 247.523 141.943C247.523 141.943 262.305 142.542 262.305 150.743C262.305 157.388 254.04 162.507 249.567 164.812C252.5 166.009 256.499 168.374 256.499 172.355C256.499 181.215 242.547 187.5 233.66 190.613C288.936 190.613 320.81 160.92 320.81 155.622C320.81 150.803 304.429 136.884 279.16 136.884Z" fill="#B5985A"/>
<path d="M268.941 145.774C268.941 145.774 285.263 149.486 292.58 154.425L260.735 162.746L290.921 161.758C284.196 166.727 259.669 178.61 259.669 178.61C259.669 178.61 289.825 174.091 308.872 156.49C291.928 141.105 268.941 145.774 268.941 145.774Z" fill="white"/>
<path d="M275.932 146.373C275.932 146.373 288.551 149.636 295.453 154.934L271.518 161.19L294.772 160.411C288.255 165.949 269.118 175.258 269.118 175.258C279.19 172.564 295.098 166.967 306.976 156.52C296.401 147.57 283.604 146.194 275.932 146.373Z" fill="#111111"/>
</g>
<defs>
<clipPath id="clip0_2_40">
<rect width="219.54" height="322.001" fill="white" transform="translate(0 5)"/>
</clipPath>
<clipPath id="clip1_2_40">
<rect width="71" height="97" fill="white" transform="translate(230 239)"/>
</clipPath>
<clipPath id="clip2_2_40">
<rect width="68" height="92" fill="white" transform="translate(231)"/>
</clipPath>
<clipPath id="clip3_2_40">
<rect width="125" height="71" fill="white" transform="translate(203 130)"/>
</clipPath>
</defs>
</svg>
